<?xml version="1.0" encoding="iso-8859-1"?>
<!-- Generator: Adobe Illustrator 19.0.0, SVG Export Plug-In . SVG Version: 6.00 Build 0)  -->
<svg version="1.1" id="Capa_1" xmlns="http://www.w3.org/2000/svg" xmlns:xlink="http://www.w3.org/1999/xlink" x="0px" y="0px"
	 viewBox="0 0 512 512" style="enable-background:new 0 0 512 512;" xml:space="preserve">
<path style="fill:#FF4B00;" d="M256,0l-30,49.75L256,91l116.618,48.382l57.288-27.288l6.322-36.322C390.055,29.597,326.305,0,256,0z
	"/>
<path style="fill:#FF9F00;" d="M436.229,75.771l-63.611,63.611L421,256l47.813,30L512,256
	C512,185.695,482.403,121.945,436.229,75.771z"/>
<path style="fill:#66BB00;" d="M421,256l-48.382,116.618l2.913,62.913l60.698,0.698C482.403,390.055,512,326.305,512,256H421z"/>
<path style="fill:#00CC71;" d="M372.618,372.618L256,421l-30,49.688L256,512c70.305,0,134.055-29.597,180.229-75.771
	L372.618,372.618z"/>
<path style="fill:#0095FF;" d="M139.382,372.618l-59.163-0.837l-4.448,64.448C121.945,482.403,185.695,512,256,512v-91
	L139.382,372.618z"/>
<path style="fill:#6B77E8;" d="M91,256l-44.063-30L0,256c0,70.305,29.597,134.055,75.771,180.229l63.611-63.611L91,256z"/>
<path style="fill:#B760EA;" d="M113.971,83.969l-38.199-8.198C29.597,121.945,0,185.695,0,256h91l48.382-116.618L113.971,83.969z"/>
<path style="fill:#FF193D;" d="M256,91V0C185.695,0,121.945,29.597,75.771,75.771l63.611,63.611C169.259,109.505,210.509,91,256,91z
	"/>
<path style="fill:#FF7816;" d="M256,91l-30,45l30,45l53.007,21.993L368.5,173.5l4.118-34.118C342.741,109.505,301.491,91,256,91z"/>
<path style="fill:#FDBF00;" d="M372.618,139.382l-63.611,63.611L331,256l41.618,30L421,256
	C421,210.509,402.495,169.259,372.618,139.382z"/>
<path style="fill:#77DD00;" d="M331,256l-21.993,53.007l7.106,37.106l56.505,26.505C402.495,342.741,421,301.491,421,256H331z"/>
<path style="fill:#00DD7B;" d="M309.007,309.007L256,331l-30,46.875L256,421c45.491,0,86.741-18.505,116.618-48.382L309.007,309.007
	z"/>
<path style="fill:#3AAAFF;" d="M202.993,309.007l-63.867,3.867l0.256,59.744C169.259,402.495,210.509,421,256,421v-90
	L202.993,309.007z"/>
<path style="fill:#7984EB;" d="M181,256l-41.874-30L91,256c0,45.491,18.505,86.741,48.382,116.618l63.611-63.611L181,256z"/>
<path style="fill:#CB75F6;" d="M199.75,139.75l-60.368-0.368C109.505,169.259,91,210.509,91,256h90l21.993-53.007L199.75,139.75z"/>
<path style="fill:#FF4949;" d="M139.382,139.382l63.611,63.611L256,181V91C210.509,91,169.259,109.505,139.382,139.382z"/>
<path style="fill:#FF9F00;" d="M309.007,202.993C295.426,189.412,276.676,181,256,181l-30,29.531L256,256l56.504-26.504
	L309.007,202.993z"/>
<path style="fill:#FFD400;" d="M331,256c0-20.676-8.412-39.426-21.993-53.007L256,256l47.812,30L331,256z"/>
<path style="fill:#89F900;" d="M309.007,309.007C322.588,295.426,331,276.676,331,256h-75l26.504,56.504L309.007,309.007z"/>
<path style="fill:#00EE84;" d="M256,256l-30,42.187L256,331c20.676,0,39.426-8.412,53.007-21.993L256,256z"/>
<path style="fill:#73BCFF;" d="M256,256l-45,15l-8.007,38.007C216.574,322.588,235.324,331,256,331V256z"/>
<path style="fill:#979FEF;" d="M181,256c0,20.676,8.412,39.426,21.993,53.007L256,256l-44.062-15L181,256z"/>
<path style="fill:#DA90F8;" d="M202.993,202.993C189.412,216.574,181,235.324,181,256h75l-15-45L202.993,202.993z"/>
<path style="fill:#FF6C6C;" d="M256,181c-20.676,0-39.426,8.412-53.007,21.993L256,256V181z"/>
<g>
</g>
<g>
</g>
<g>
</g>
<g>
</g>
<g>
</g>
<g>
</g>
<g>
</g>
<g>
</g>
<g>
</g>
<g>
</g>
<g>
</g>
<g>
</g>
<g>
</g>
<g>
</g>
<g>
</g>
</svg>
