<svg id="Layer_1" data-name="Layer 1" xmlns="http://www.w3.org/2000/svg" xmlns:xlink="http://www.w3.org/1999/xlink" viewBox="0 0 171.6 49.4"><defs><style>.cls-1,.cls-2{fill:none;}.cls-1{clip-rule:evenodd;}.cls-3{fill:#f1a5ff;}.cls-4{clip-path:url(#clip-path);}.cls-5{isolation:isolate;}.cls-6{fill:url(#New_Gradient_Swatch_1);}.cls-7{fill:url(#New_Gradient_Swatch_2);}.cls-21,.cls-8{fill-rule:evenodd;}.cls-8{fill:url(#linear-gradient);}.cls-9{clip-path:url(#clip-path-2);}.cls-10{clip-path:url(#clip-path-3);}.cls-11{fill:#974dff;}.cls-12{clip-path:url(#clip-path-4);}.cls-13{clip-path:url(#clip-path-5);}.cls-14{clip-path:url(#clip-path-6);}.cls-15{clip-path:url(#clip-path-8);}.cls-16{fill:url(#New_Gradient_Swatch_2-2);}.cls-17{clip-path:url(#clip-path-9);}.cls-18{fill:#373fff;}.cls-19{clip-path:url(#clip-path-11);}.cls-20{clip-path:url(#clip-path-13);}.cls-21,.cls-22{fill:#fff;}</style><clipPath id="clip-path"><path class="cls-1" d="M28.8,46.1a5.9,5.9,0,0,1,.5,2.8,7.8,7.8,0,0,1-1.9.2A12.8,12.8,0,0,1,22,49c-3.5-.7-5.2-4.5-5.2-4.5h-.2a22.6,22.6,0,0,1-5.2.4c-1.7,0-8.6-2.6-10.8-5.4,0,0,3.4-.8,3.4-1.6s-3.9-2-3.9-2-.6-3.3,3.6-6.6A25.8,25.8,0,0,1,11,24.9C8.8,24.6,2.6,22.1.5,19.5c0,0,3.4-.8,3.4-1.6s-3.9-2-3.9-2-.6-3.3,3.6-6.6,7.4-4.8,10.9-5l4.7-.2S22.4,0,24,0,36.7,2.5,37.7,4.2a4.3,4.3,0,0,0,2.1,1.9c.5.4.2.1,2.6.6,6,1.3,5.1,1.9,9.6,2.7,1.8.3,10-3.7,10.8-3.3s.6,3.7-.8,5.9,1.1,4.2,0,7,1.3,5,.8,5.9S53.4,21.7,51.9,22s-5.2,2.1-12.8,3.5l.7.4c.5.4.2.1,2.6.6,6,1.3,5.1,1.9,9.6,2.7,1.8.3,10-3.7,10.8-3.3s.6,3.7-.8,5.9,1.1,4.2,0,7,1.3,5,.8,5.9-9.2-3.2-10.8-2.9-6.2,2.5-15.6,4A38.3,38.3,0,0,1,28.8,46.1Z"/></clipPath><linearGradient id="New_Gradient_Swatch_1" x1="30.63" x2="30.63" y2="17.99" gradientUnits="userSpaceOnUse"><stop offset="0" stop-color="#e559ff"/><stop offset="1" stop-color="#924dff"/></linearGradient><linearGradient id="New_Gradient_Swatch_2" x1="15.25" y1="8.9" x2="41.56" y2="26.47" gradientUnits="userSpaceOnUse"><stop offset="0" stop-color="#f1a5ff"/><stop offset="1" stop-color="#ff686c"/></linearGradient><linearGradient id="linear-gradient" x1="31.69" y1="22.88" x2="31.69" y2="38.25" gradientUnits="userSpaceOnUse"><stop offset="0" stop-color="#6f3cff"/><stop offset="1" stop-color="#3633ff"/></linearGradient><clipPath id="clip-path-2"><path class="cls-2" d="M24.4,9.2l3.2.2h3.3A74.7,74.7,0,0,1,39,10.8,55.3,55.3,0,0,1,51.4,15l1.8.8a.7.7,0,0,0,.9-.4.8.8,0,0,0-.4-1l-1.8-.8A56.4,56.4,0,0,0,39.3,9.3a75.8,75.8,0,0,0-8.3-1.2H27.7l-3.2-.2H23.1a.7.7,0,0,0-.6,1.1h.1l.2.4.5,1.3a14.9,14.9,0,0,1,.6,2.1v.7a11.5,11.5,0,0,1-.4,3.1L23,18l-.6,1.9-.2.6v.2h0a.8.8,0,0,0,.4,1,.7.7,0,0,0,.9-.4h0V21l.2-.6.6-2,.4-1.6a12.6,12.6,0,0,0,.4-3.7v-.8a16.5,16.5,0,0,0-.6-2.3l-.3-.8Z"/></clipPath><clipPath id="clip-path-3"><rect class="cls-2" width="63" height="49.43"/></clipPath><clipPath id="clip-path-4"><path class="cls-2" d="M24.4,17.9l.2-1a12.9,12.9,0,0,0,.4-3.7v-.8a16.9,16.9,0,0,0-.6-2.3l-.3-.8h.3l3.2.2h3.3A73.8,73.8,0,0,1,39,10.8a54.8,54.8,0,0,1,12.4,4.3l1.8.8a.6.6,0,0,0,.9-.4.8.8,0,0,0-.4-1l-1.8-.8A55.9,55.9,0,0,0,39.3,9.3a74.9,74.9,0,0,0-8.3-1.2H27.7l-3.2-.2H23.1a.8.8,0,0,0-.6,1.1h.1l.2.4.5,1.3a15.3,15.3,0,0,1,.6,2.1v.7a11.8,11.8,0,0,1-.4,3.2L23,17.9Z"/></clipPath><clipPath id="clip-path-5"><rect class="cls-2" y="-0.1" width="63" height="50.07"/></clipPath><clipPath id="clip-path-6"><path class="cls-2" d="M18.9,9.5H19l.2.3.6,1.2a10.7,10.7,0,0,1,.7,2,5.1,5.1,0,0,1,.1,1A8.9,8.9,0,0,1,20,17l-.4.9v.3h0a.7.7,0,0,0,.2.9.6.6,0,0,0,.8-.3l.2-.4.4-1.1a10.2,10.2,0,0,0,.6-3.3,6.6,6.6,0,0,0-.1-1.3,12,12,0,0,0-.8-2.3l-.6-1.3L20,8.7a.6.6,0,0,0-.9-.2A.7.7,0,0,0,18.9,9.5Z"/></clipPath><clipPath id="clip-path-8"><path class="cls-3" d="M21,17.9v-.4a10.5,10.5,0,0,0,.6-3.3,6.7,6.7,0,0,0-.1-1.3,12.3,12.3,0,0,0-.8-2.3l-.6-1.3L20,8.7a.6.6,0,0,0-.9-.2.7.7,0,0,0-.2.9H19l.2.3.6,1.2a10.9,10.9,0,0,1,.7,2.1,5.3,5.3,0,0,1,.1,1A9.1,9.1,0,0,1,20,17l-.3.9Z"/></clipPath><linearGradient id="New_Gradient_Swatch_2-2" x1="25.86" y1="35.95" x2="36.69" y2="48.92" xlink:href="#New_Gradient_Swatch_2"/><clipPath id="clip-path-9"><path class="cls-2" d="M24.4,29.3l3.2.2h3.3A74.7,74.7,0,0,1,39,30.8a55.3,55.3,0,0,1,12.4,4.2l1.8.8a.7.7,0,0,0,.9-.4.8.8,0,0,0-.4-1l-1.8-.8a56.4,56.4,0,0,0-12.6-4.3,75.8,75.8,0,0,0-8.3-1.2H27.7l-3.2-.2H23.1a.7.7,0,0,0-.6,1.1h.1l.2.4.5,1.3a14.9,14.9,0,0,1,.6,2.1v.7a11.5,11.5,0,0,1-.4,3.1L23,38,22.4,40l-.2.6v.2h0a.8.8,0,0,0,.4,1,.7.7,0,0,0,.9-.4h0v-.2l.2-.6.6-2,.4-1.6a12.6,12.6,0,0,0,.4-3.7v-.8a16.5,16.5,0,0,0-.6-2.3l-.3-.8Z"/></clipPath><clipPath id="clip-path-11"><path class="cls-2" d="M24.4,37.8l.2-1a12.6,12.6,0,0,0,.4-3.7v-.8a16.5,16.5,0,0,0-.6-2.3l-.3-.8h.3l3.2.2h3.3A74.7,74.7,0,0,1,39,30.8a55.3,55.3,0,0,1,12.4,4.2l1.8.8a.7.7,0,0,0,.9-.4.8.8,0,0,0-.4-1l-1.8-.8a56.4,56.4,0,0,0-12.6-4.3,75.8,75.8,0,0,0-8.3-1.2H27.7l-3.2-.2H23.1a.7.7,0,0,0-.6,1.1h.1l.2.4.5,1.3a14.9,14.9,0,0,1,.6,2.1v.7a11.5,11.5,0,0,1-.4,3.1L23,37.8Z"/></clipPath><clipPath id="clip-path-13"><path class="cls-3" d="M21,37.8v-.4a10.2,10.2,0,0,0,.6-3.3,6.6,6.6,0,0,0-.1-1.3,12,12,0,0,0-.8-2.3l-.6-1.3-.3-.5a.6.6,0,0,0-.9-.2.7.7,0,0,0-.2.9H19l.2.3.6,1.2a10.7,10.7,0,0,1,.7,2,5.1,5.1,0,0,1,.1,1A8.9,8.9,0,0,1,20,37l-.3.9Z"/></clipPath></defs><title>wordmark</title><g class="cls-4"><g class="cls-5"><rect class="cls-6" x="-1.7" width="64.6" height="18.1"/><polyline class="cls-7" points="55.6 26.6 63 25.5 63.1 23.2 63.1 17.9 62.6 16.1 38.5 16.1 38.5 17.9 0 17.9 0 23.2 5.2 24.9 24.9 26.6 29.2 26.6"/><polygon class="cls-8" points="24.9 23.2 47.3 23.2 47.3 25.6 63.4 25.5 63.4 36 30 36 30 37.8 0 37.8 0 25.5 9.4 24.9 24.9 25 24.9 23.2"/><g class="cls-9"><g class="cls-10"><rect class="cls-11" x="21.3" y="7" width="33.5" height="15.6"/></g></g><g class="cls-12"><g class="cls-13"><rect class="cls-3" x="21.7" y="6.8" width="33.2" height="11.89"/></g></g><g class="cls-14"><g class="cls-10"><rect class="cls-11" x="18.1" y="7.7" width="4.5" height="12.36"/></g></g><path class="cls-3" d="M21,17.9v-.4a10.5,10.5,0,0,0,.6-3.3,6.7,6.7,0,0,0-.1-1.3,12.3,12.3,0,0,0-.8-2.3l-.6-1.3L20,8.7a.6.6,0,0,0-.9-.2.7.7,0,0,0-.2.9H19l.2.3.6,1.2a10.9,10.9,0,0,1,.7,2.1,5.3,5.3,0,0,1,.1,1A9.1,9.1,0,0,1,20,17l-.3.9Z"/><g class="cls-15"><rect class="cls-3" y="-0.1" width="63" height="50.12"/></g><polygon class="cls-16" points="63 49.4 0 49.4 0 37.8 29.9 37.8 29.9 36 63 36 63 49.4"/><g class="cls-17"><g class="cls-10"><rect class="cls-18" x="21.3" y="26.9" width="33.5" height="15.6"/></g></g><g class="cls-19"><g class="cls-10"><rect class="cls-3" x="21.7" y="26.9" width="33.2" height="11.74"/></g></g><path class="cls-18" d="M18.9,29.5H19l.2.3.6,1.2a10.7,10.7,0,0,1,.7,2,5.1,5.1,0,0,1,.1,1A8.9,8.9,0,0,1,20,37l-.4.9v.3h0a.7.7,0,0,0,.2.9.6.6,0,0,0,.8-.3l.2-.4.4-1.1a10.2,10.2,0,0,0,.6-3.3,6.6,6.6,0,0,0-.1-1.3,12,12,0,0,0-.8-2.3l-.6-1.3-.3-.5a.6.6,0,0,0-.9-.2A.7.7,0,0,0,18.9,29.5Z"/><path class="cls-3" d="M21,37.8v-.4a10.2,10.2,0,0,0,.6-3.3,6.6,6.6,0,0,0-.1-1.3,12,12,0,0,0-.8-2.3l-.6-1.3-.3-.5a.6.6,0,0,0-.9-.2.7.7,0,0,0-.2.9H19l.2.3.6,1.2a10.7,10.7,0,0,1,.7,2,5.1,5.1,0,0,1,.1,1A8.9,8.9,0,0,1,20,37l-.3.9Z"/><g class="cls-20"><rect class="cls-3" width="63" height="49.43"/></g></g></g><circle cx="10.8" cy="12.9" r="2.7"/><path class="cls-21" d="M8,12.7H8a2.9,2.9,0,1,1,2.9,3,2.7,2.7,0,0,1-2.9-2.5A2.1,2.1,0,0,0,10.3,15,2.3,2.3,0,1,0,8,12.7Z"/><circle class="cls-22" cx="9.2" cy="13.5" r="0.8"/><circle cx="10.8" cy="32.9" r="2.7"/><path class="cls-21" d="M8,32.6H8a2.9,2.9,0,1,1,2.9,3,2.7,2.7,0,0,1-2.9-2.5A2.1,2.1,0,0,0,10.3,35,2.3,2.3,0,1,0,8,32.6Z"/><circle class="cls-22" cx="9.2" cy="33.5" r="0.8"/><path d="M72.7,23.6c0-7.4,4.1-12.2,10.8-12.2,4.5,0,8.1,1.8,9.6,7.6l-4.8,1.3c-1-3.3-2.5-4.6-4.8-4.6s-5.5,1.1-5.5,7.8,3.2,8.3,5.7,8.3a4.8,4.8,0,0,0,4.9-4.3H84.4V23.6h9.1V35.5H89.3V32.2h-.1A6.5,6.5,0,0,1,83,36C75.9,36,72.7,30.7,72.7,23.6Z"/><path d="M97.9,11.8H103V35.5H97.9Z"/><path d="M107.2,12h5.2v4.1h-5.2Zm0,6.5h5.1V35.5h-5.1Z"/><path d="M117.9,30.7V22.2H115V18.5h2.8V12.6H123v5.9h4.4v3.7H123v7.4c0,1.8.5,2.4,2.4,2.4l1.7-.2v3.7l-3.4.3C118.6,35.7,117.9,33.9,117.9,30.7Z"/><path d="M129.2,27c0-6.8,4.8-8.9,8.6-8.9s6.4,2.5,7.4,5.2l-4.3,1.4c-.7-2.2-1.7-2.9-3.2-2.9s-3.4,1.8-3.4,5.2,1,5.2,3.3,5.2,2.6-.7,3.4-3l4.3,1.5a7.7,7.7,0,0,1-7.7,5.2C133.6,35.9,129.2,33.6,129.2,27Z"/><path d="M147.9,11.8h5.2v9.3a7.3,7.3,0,0,1,5.9-3c2.9,0,5,1.4,5,5V35.5h-5.2V24.7c0-1.5-.6-2.3-2-2.3a5.8,5.8,0,0,0-3.7,1.7V35.5h-5.2Z"/></svg>